<svg width="84" height="39" viewBox="0 0 84 39" fill="none" xmlns="http://www.w3.org/2000/svg">
<path d="M10.3973 17.64H15.0773V22.2H0.677344V17.64H5.35734V15H10.0373V12.36H0.677344V7.8H10.0373V7.08C9.98401 5.98666 9.50401 5.42666 8.59734 5.4H0.677344V0.839998H9.79734C12.8107 0.839998 14.5307 2.04 14.9573 4.44C15.0373 4.89333 15.0773 5.37333 15.0773 5.88V15.24H10.3973V17.64ZM80.4136 0.839998V5.64H83.2936V10.2H80.4136V15.24H75.3736V0.839998H80.4136ZM68.0536 17.64H72.7336V22.2H58.3336V17.64H63.0136V15.36C60.8269 14.6667 59.2536 13.2933 58.2936 11.24C57.8403 10.2267 57.6136 9.16 57.6136 8.04C57.6136 5.56 58.5736 3.57333 60.4936 2.08C61.9603 0.933332 63.6403 0.359999 65.5336 0.359999C68.0936 0.359999 70.1469 1.29333 71.6936 3.16C72.8669 4.57333 73.4536 6.2 73.4536 8.04C73.4536 10.4933 72.4936 12.48 70.5736 14C69.8003 14.6133 68.9603 15.0667 68.0536 15.36V17.64ZM65.5336 11.16C66.7069 11.16 67.5603 10.6133 68.0936 9.52C68.3069 9.04 68.4136 8.54666 68.4136 8.04C68.4136 6.78666 67.9069 5.86666 66.8936 5.28C66.4669 5.04 66.0136 4.92 65.5336 4.92C64.3603 4.92 63.5069 5.46666 62.9736 6.56C62.7603 7.04 62.6536 7.53333 62.6536 8.04C62.6536 9.29333 63.1603 10.2133 64.1736 10.8C64.6003 11.04 65.0536 11.16 65.5336 11.16Z" fill="white"/>
<path d="M19.8961 24.12H34.2961V33.24H24.9361C24.9894 33.8533 25.3094 34.1733 25.8961 34.2H34.2961V38.52H24.6961C21.8961 38.52 20.3228 37.3867 19.9761 35.12C19.9228 34.7467 19.8961 34.36 19.8961 33.96V29.4H29.2561V28.44H19.8961V24.12ZM19.8961 21.96V17.4H34.2961V21.96H19.8961ZM27.9361 10.68V5.4H26.2561V10.68H27.9361ZM34.2961 5.4H32.9761V10.68H34.2961V15.24H19.8961V10.68H21.2161V5.4H19.8961V0.839998H34.2961V5.4ZM48.8348 17.64H53.5148V22.2H39.1148V17.64H43.7948V15.24C41.0482 15.2133 39.5148 14.0667 39.1948 11.8C39.1415 11.4267 39.1148 11.0533 39.1148 10.68V6.12H48.4748V5.16H39.1148V0.839998H53.5148V9.96H44.1548C44.2082 10.5733 44.5282 10.8933 45.1148 10.92H53.5148V15.24H48.8348V17.64Z" fill="#5F8BFF"/>
</svg>
